<?xml version="1.0" encoding="utf-8"?>
<!-- Generator: Adobe Illustrator 27.6.1, SVG Export Plug-In . SVG Version: 6.00 Build 0)  -->
<svg version="1.1" id="Layer_1" xmlns="http://www.w3.org/2000/svg" xmlns:xlink="http://www.w3.org/1999/xlink" x="0px" y="0px"
	 viewBox="0 0 2274.1 1230.21" style="enable-background:new 0 0 2274.1 1230.21;" xml:space="preserve">
<style type="text/css">
	.st0{fill:#807F83;}
	.st1{fill:#F89728;}
	.st2{fill:#EF3E42;}
</style>
<g>
	<g>
		<path class="st0" d="M1168.9,1046.59c-17.07,0-34.8,0-34.8-19.87V830.07c0-66.72-36.91-91.57-87.99-91.57
			c-43.31,0-79.52,30.52-110.74,51.81v-45.4l-7.82-6.41c-7.88,3.26-16.15,7.35-24.69,10.87c-18.32,7.56-44.23,11.94-73.24,11.94
			l-22.23-0.09c-10.64,0-23.41,0-31.91-4.24c-27.68-13.49-53.97-18.47-86.61-18.47c-65.3,0-136.29,41.88-136.29,113.6
			c0,46.14,29.09,80.91,69.57,99.37l-61.76,42.61c0,48.25,23.41,70.97,71.71,75.22v1.4c-52.53,22.05-83.79,36.23-83.79,83.08
			c0,52.52,69.57,75.94,136.32,75.94c75.22,0,184.55-38.31,184.55-147.65c0-5.87-0.63-11.33-1.57-16.48
			c10.41-0.32,20.92-0.53,31.56-0.53c11.95,0,23.87,0.27,35.82,0.72l0.39-36.2V815.17c15.63-9.93,41.86-24.15,65.33-24.15
			c31.92,0,53.91,16.35,53.91,59.66v177.44c0,18.47-20.58,18.47-34.8,18.47h-7.06v21.31c28.37-1.44,56.04-2.85,84.44-2.85
			c27,0,53.26,1.41,80.18,2.85v-21.31H1168.9z M688.13,759.79c45.44,0,58.22,65.32,58.22,100.09c0,35.52-9.91,78.81-53.21,78.81
			c-44.76,0-61.04-58.19-61.04-93.72C632.09,808.79,642.01,759.79,688.13,759.79z M697.4,1204.17c-51.84,0-90.89-15.63-90.89-63.2
			c0-53.89,72.44-62.44,116.4-62.44c38.35,0,88.06,4.99,88.06,51.1C810.97,1178.59,744.94,1204.17,697.4,1204.17z M855.87,1025.29
			c0,4.2-0.69,7.59-1.87,10.28c-17-21-46.35-30.17-77.81-30.17c-31.25,0-62.48,3.55-93.73,3.55c-27.68,0-56.04-0.69-53.91-36.91
			l17.01-14.18c14.9,4.22,30.52,6.4,46.12,6.4c67.47,0,134.2-44.02,134.2-112.16c0-18.46-3.13-35.16-11.63-55.02
			c8.54,2.1,16.09,5.31,24.56,7.46c15.63,4.26,17.07,8.5,17.07,19.85V1025.29z"/>
		<path class="st0" d="M444.88,642.6c-23.73,0-42.68-18.89-42.68-42.68c0-23.12,18.95-42.71,42.68-42.71
			c23.83,0,42.74,19.59,42.74,42.71C487.63,623.71,468.71,642.6,444.88,642.6z"/>
		<path class="st0" d="M1541.68,1063.91c-30.57,0-105.07-1.31-125.32,6.95l-7-5.6v-49.67c-30.15,25.17-70.04,55.27-110.62,55.27
			c-62.28,0-85.43-34.31-85.43-81.9V799.24c0-10.52-2.06-14.7-14.67-18.18l-29.42-8.41v-16.81c40.61-2.1,85.43-9.11,119.01-20.3
			l7,4.2c-1.38,19.58-3.48,41.32-3.48,63.02v154.7c0,41.3,19.6,57.39,51.81,57.39c25.87,0,49.68-16.09,65.8-29.41v-179.2
			c0-14.7-2.79-17.52-16.81-22.41l-35.01-11.19v-16.81c35.7-2.1,93.81-7.03,126.74-20.3l6.99,4.2c-2.82,19.58-3.51,41.32-3.51,63.02
			v220.18c0,18.92,4.21,25.21,18.91,25.21h23.91l0.13-0.1c15.96,0,30.04-6.3,37.21-14.93l98.92-108l-91.01-124.63
			c-13.99-16.8-23.81-26.58-46.92-26.58h-6.95v-21.03c31.48,1.43,62.28,2.82,93.77,2.82c7.75,0,15.46-0.14,23.18-0.32l43.34,56.31
			l38.51,50.41l39.16-46.92l50.41-59.52c2.56,0.02,5.12,0.05,7.71,0.05c12.64,0,24.36-0.55,37.2-1.3l-118.4,130.79l101.52,140.01
			c11.2,15.41,26.6,21,45.51,21h5.59v21.02c-25.87-1.44-51.82-2.79-77.69-2.79c-13.91,0-28,0.25-41.95,0.63l-32.24-44.06
			l-54.64-73.52l-44.78,54.64l-50.76,62.31C1586.1,1064.43,1543,1063.91,1541.68,1063.91z"/>
	</g>
	<path class="st0" d="M367.3,1044.45h2.03c20.26,0,36.38,0,36.38-21.01v-198.1c0-11.21-1.41-15.43-16.81-19.61
		c-8.37-2.1-16.08-4.93-24.49-7.02v-16.81c21.69-5.58,45.5-13.99,63.7-20.27c16.12-5.61,32.93-14.73,48.29-21.01l7.71,6.29v280.73
		c0,16.81,16.09,16.81,33.59,16.81h10.51v21.04c-26.59-1.43-53.19-2.83-79.78-2.83c-27.72,0-54.2,1.74-80.87,1.74
		c-25.93,0-50.34,0.19-76.24,0.19c-13.91,0-27.97,0.23-41.95,0.61l-33.75-45.95l-54.61-73.49l-44.82,54.59l-50.73,62.31
		c-1.31,0-2.59,0-3.9,0c-12.94,0-32.87,0.81-45.97,1.52l129.29-140.83L53.88,798.71c-13.98-16.77-23.8-26.59-46.89-26.59H0v-21.01
		c31.48,1.39,62.29,2.82,93.77,2.82c7.76,0,15.47-0.12,23.22-0.32l43.29,56.29l38.52,50.41l39.2-46.88l50.37-59.56
		c2.57,0.01,5.16,0.05,7.76,0.05c12.57,0,24.35-0.55,37.16-1.32L214.89,883.45l101.51,140c11.2,15.4,26.6,21.01,45.51,21.01h5.57
		H367.3z"/>
	<g>
		<g>
			<path class="st1" d="M1896.6,561.62c-21.67-60.73-85.66-95.3-148.07-80.51l-89.11,27.58l-0.04-0.13
				c-25.84,5.51-51.98-7.59-63.24-31.2l-42.42,27.11c-31.26,24.02-39.4,68.95-17.77,102.77c21.58,33.74,65.18,44.87,99.98,26.73
				l0.13,0.13l105.79-67.66c49.28-27.03,106.87-27.17,154.87-4.45L1896.6,561.62z"/>
			<path class="st1" d="M2261.5,143.05c-21.94-34.34-66.65-45.2-101.81-25.69l-0.13-0.18l-93.52,59.76
				c-0.06,0.08-0.19,0.11-0.29,0.16c-51.45,32.93-113.9,34.67-165.24,10.16c22.31,63.99,91.44,99.34,156.74,79.12
				c0.03,0,0.13-0.03,0.19-0.05l78.73-24.33l0.07,0.17c26.23-6.37,53.12,6.67,64.64,30.58l34.2-21.88c1.03-0.61,6.91-4.43,6.91-4.43
				l-0.07-0.04C2274.57,222.74,2283.53,177.46,2261.5,143.05z"/>
		</g>
		<path class="st2" d="M1640.84,114.03l60.57,94.8c32.51,51.26,34.25,113.3,9.91,164.4c63.57-22.41,98.66-91.09,78.87-156.08
			l-24.66-79.81l0.16-0.03c-6.4-26.27,6.67-53.18,30.67-64.66l-21.84-34.13c-0.6-1.03-4.4-6.91-4.4-6.91l-0.07,0.02
			c-23.7-32.61-68.92-41.55-103.36-19.53c-34.34,21.96-45.21,66.67-25.68,101.84L1640.84,114.03z"/>
		<path class="st2" d="M2157.78,637.54l-58.34-91.17c-0.82-1.67-1.74-3.36-2.92-5.16c-32.77-51.22-34.6-113.3-10.48-164.51
			l-3.41,1.08c-61.56,23.69-95.05,91.38-75.25,155.3c0.46,1.54,0.79,2.93,1.04,4.28l23.75,76.77l-0.13,0.04
			c5.54,25.81-7.55,51.93-31.1,63.19l27.18,42.52c24.04,31.27,68.98,39.42,102.8,17.78c33.72-21.6,44.89-65.16,26.73-100.03
			L2157.78,637.54z"/>
	</g>
	<path class="st0" d="M1935.12,758.82c8.37,0,15.49,2.93,21.4,8.83c5.88,5.87,8.8,12.97,8.8,21.27c0,8.37-2.92,15.5-8.8,21.4
		c-5.87,5.9-13,8.85-21.4,8.85c-8.38,0-15.54-2.95-21.41-8.85c-5.81-5.9-8.73-13.03-8.73-21.4c0-8.31,2.93-15.4,8.81-21.27
		C1919.68,761.75,1926.77,758.82,1935.12,758.82z M1970.17,788.88c0-9.68-3.44-17.92-10.28-24.71c-6.86-6.82-15.13-10.2-24.82-10.2
		c-9.65,0-17.89,3.38-24.69,10.2c-6.83,6.82-10.28,15.07-10.28,24.71c0,9.73,3.39,18,10.18,24.82c6.8,6.88,15.07,10.31,24.79,10.31
		c9.69,0,17.96-3.43,24.82-10.31C1966.73,806.84,1970.17,798.57,1970.17,788.88z M1944.34,781.41c0,2.91-1.34,4.9-4,5.92
		c-1.48,0.56-3.65,0.85-6.57,0.85h-6.2v-13.73h5.84c3.84,0,6.6,0.47,8.35,1.41C1943.49,776.82,1944.34,778.66,1944.34,781.41z
		 M1920.93,769.61v38.42h6.63v-15h5.42c3.64,0,6.21,0.41,7.68,1.23c2.47,1.41,3.68,4.33,3.68,8.73v3.02l0.13,1.23
		c0.03,0.15,0.06,0.29,0.1,0.41c0.03,0.14,0.07,0.27,0.1,0.38h6.3l-0.23-0.46c-0.16-0.33-0.27-0.99-0.33-2.01
		c-0.06-1.01-0.1-1.96-0.1-2.85v-2.79c0-1.94-0.72-3.9-2.1-5.93c-1.38-2.03-3.62-3.29-6.6-3.76c2.39-0.38,4.23-1,5.58-1.85
		c2.52-1.63,3.77-4.17,3.77-7.62c0-4.84-1.99-8.09-5.98-9.75c-2.23-0.91-5.78-1.4-10.54-1.4H1920.93z"/>
</g>
</svg>
